<svg xmlns="http://www.w3.org/2000/svg" viewBox="0 0 64 64" width="64" height="64">
  <defs>
    <linearGradient id="g" x1="0" y1="0" x2="1" y2="1">
      <stop offset="0%" stop-color="#6AAEE0"/>
      <stop offset="100%" stop-color="#3578C0"/>
    </linearGradient>
  </defs>
  <rect width="64" height="64" rx="14" fill="url(#g)"/>
  <path d="M22 18a6 6 0 0 1 10-4.4A6 6 0 0 1 42 18a7 7 0 0 1 4.2 11A7 7 0 0 1 45 41.5a7 7 0 0 1-12.5 6.4 7 7 0 0 1-12.5-6.4A7 7 0 0 1 19 29 7 7 0 0 1 22 18z" fill="none" stroke="white" stroke-width="2.5" stroke-linejoin="round"/>
  <line x1="32" y1="13" x2="32" y2="48" stroke="white" stroke-width="2.5" stroke-linecap="round" opacity="0.7"/>
</svg>
